<svg xmlns="http://www.w3.org/2000/svg" viewBox="0 0 512 512">
  <defs>
    <linearGradient id="field" x1="40" y1="24" x2="472" y2="488" gradientUnits="userSpaceOnUse">
      <stop stop-color="#17244A"/>
      <stop offset="1" stop-color="#0E1733"/>
    </linearGradient>
    <linearGradient id="signal" x1="128" y1="388" x2="382" y2="124" gradientUnits="userSpaceOnUse">
      <stop stop-color="#7C45F4"/>
      <stop offset=".48" stop-color="#6846F3"/>
      <stop offset="1" stop-color="#3182FF"/>
    </linearGradient>
  </defs>
  <rect width="512" height="512" fill="url(#field)"/>
  <g fill="url(#signal)">
    <rect x="117" y="369" width="18" height="34" rx="9"/>
    <rect x="141" y="335" width="18" height="54" rx="9"/>
    <rect x="165" y="300" width="18" height="76" rx="9"/>
    <rect x="189" y="264" width="18" height="100" rx="9"/>
    <rect x="213" y="228" width="18" height="124" rx="9"/>
    <rect x="237" y="193" width="18" height="146" rx="9"/>
    <rect x="261" y="180" width="18" height="124" rx="9"/>
    <rect x="285" y="168" width="18" height="100" rx="9"/>
    <rect x="309" y="156" width="18" height="76" rx="9"/>
    <rect x="333" y="143" width="18" height="54" rx="9"/>
    <rect x="357" y="129" width="18" height="34" rx="9"/>
  </g>
  <circle cx="256" cy="256" r="32" fill="#0F1936"/>
  <circle cx="256" cy="256" r="22" fill="#FFFFFF"/>
</svg>
