<svg xmlns="http://www.w3.org/2000/svg" viewBox="0 0 512 512"><defs><linearGradient id="field" x1="80" x2="432" y1="48" y2="464" gradientUnits="userSpaceOnUse"><stop stop-color="#17244A"/><stop offset="1" stop-color="#0E1733"/></linearGradient><linearGradient id="signal" x1="128" x2="382" y1="388" y2="124" gradientUnits="userSpaceOnUse"><stop stop-color="#7C45F4"/><stop offset=".48" stop-color="#6846F3"/><stop offset="1" stop-color="#3182FF"/></linearGradient></defs><rect width="512" height="512" fill="url(#field)" rx="112"/><g fill="url(#signal)"><rect width="18" height="34" x="117" y="369" rx="9"/><rect width="18" height="54" x="141" y="335" rx="9"/><rect width="18" height="76" x="165" y="300" rx="9"/><rect width="18" height="100" x="189" y="264" rx="9"/><rect width="18" height="124" x="213" y="228" rx="9"/><rect width="18" height="146" x="237" y="193" rx="9"/><rect width="18" height="124" x="261" y="180" rx="9"/><rect width="18" height="100" x="285" y="168" rx="9"/><rect width="18" height="76" x="309" y="156" rx="9"/><rect width="18" height="54" x="333" y="143" rx="9"/><rect width="18" height="34" x="357" y="129" rx="9"/></g><circle cx="256" cy="256" r="32" fill="#0F1936"/><circle cx="256" cy="256" r="22" fill="#FFF"/></svg>